<svg width="368" height="141" viewBox="0 0 368 141" fill="none" xmlns="http://www.w3.org/2000/svg">
<path d="M131.758 53.9264C129.694 53.9264 128.683 52.7713 128.683 50.38V33.8028C128.683 29.0404 127.044 25.3523 123.827 22.8393C120.63 20.3264 116.26 19.0697 110.857 19.0697C107.175 19.0697 103.938 19.617 101.226 20.6708C98.5151 21.7449 96.3906 23.2241 94.9338 25.048C93.4568 26.8921 92.7284 28.9999 92.7284 31.3102V31.4923H98.6162V31.3102C98.6162 29.3242 99.7291 27.6219 101.914 26.3047C104.12 24.9469 107.114 24.2781 110.797 24.2781C114.479 24.2781 117.595 25.0683 119.78 26.649C121.945 28.2095 123.038 30.6008 123.038 33.742V39.0721C121.358 38.0588 119.214 37.2077 116.664 36.5389C113.973 35.8296 111.201 35.4851 108.45 35.4851C105.232 35.4851 102.299 35.9917 99.7291 36.9847C97.1392 37.9777 95.0754 39.4163 93.5984 41.2402C92.1012 43.0843 91.3526 45.2729 91.3526 47.7453C91.3526 51.5755 92.8498 54.5955 95.8241 56.7233C98.7781 58.831 102.683 59.9047 107.478 59.9047C110.695 59.9047 113.791 59.4184 116.664 58.4456C119.517 57.4931 121.844 56.2369 123.564 54.6765H123.665C124.596 57.615 126.862 59.1145 130.402 59.1145C131.819 59.1145 133.134 58.8513 134.287 58.3244L134.388 58.2838V53.1971L134.085 53.3995C133.599 53.744 132.83 53.9061 131.778 53.9061L131.758 53.9264ZM123.017 49.8327C121.439 51.3324 119.335 52.5281 116.765 53.3995C114.155 54.2709 111.383 54.7171 108.51 54.7171C105.131 54.7171 102.38 54.1292 100.296 52.9943C98.2116 51.8594 97.1999 50.1367 97.1999 47.7453C97.1999 45.5567 98.333 43.8345 100.599 42.6186C102.885 41.4026 105.9 40.7741 109.522 40.7741C112.071 40.7741 114.621 41.078 117.089 41.6657C119.497 42.2534 121.48 43.0237 122.997 43.9559V49.8327H123.017Z" fill="white"/>
<path d="M52.2217 21.927C49.1867 20.3463 45.6055 19.5358 41.5386 19.5358H24.1786V58.9523H41.5386C45.6055 58.9523 49.207 58.1418 52.2217 56.5611C55.2364 54.9803 57.6037 52.6703 59.2223 49.7115C60.841 46.7528 61.6706 43.2262 61.6706 39.2339C61.6706 35.2416 60.841 31.7155 59.2223 28.7567C57.6037 25.798 55.2364 23.5077 52.2217 21.9067V21.927ZM54.0022 46.9755C52.8489 49.1642 51.1696 50.8665 49.0046 52.0622C46.8397 53.2578 44.2701 53.8656 41.3565 53.8656H29.8034V24.6022H41.3565C44.2701 24.6022 46.8397 25.2104 49.0046 26.4061C51.1696 27.6018 52.8489 29.3239 54.0022 31.4923C55.1555 33.681 55.7423 36.2751 55.7423 39.2339C55.7423 42.1927 55.1555 44.7868 54.0022 46.9755Z" fill="white"/>
<path d="M169.351 58.9523H174.996V41.7874H199.397V36.721H174.996V24.6022H200.632V19.5155H169.351V58.9523Z" fill="white"/>
<path d="M337.731 38.8084C335.506 38.1599 332.572 37.5521 329.011 36.9847C326.178 36.5186 323.932 36.0927 322.354 35.7077C320.776 35.3227 319.461 34.7149 318.429 33.9043C317.417 33.1139 316.911 31.9788 316.911 30.5602C316.911 28.6755 317.842 27.1353 319.704 26.0207C321.585 24.8858 324.256 24.2984 327.675 24.2984C331.095 24.2984 334.049 24.9874 335.991 26.325C337.792 27.5814 338.763 29.2634 338.885 31.3508V31.5329H344.793V31.3305C344.671 27.7232 343.113 24.7846 340.139 22.5554C337.064 20.2653 332.835 19.09 327.594 19.09C322.658 19.09 318.631 20.1236 315.596 22.1501C312.561 24.197 311.003 27.1152 311.003 30.7833C311.003 33.5192 311.813 35.6874 313.391 37.2276C314.949 38.7475 316.871 39.8421 319.097 40.4703C321.302 41.0985 324.216 41.7063 327.777 42.2737C330.65 42.7398 332.916 43.1657 334.474 43.5507C336.011 43.9358 337.347 44.5435 338.399 45.3541C339.431 46.1445 339.957 47.2797 339.957 48.6982C339.957 50.7248 339.006 52.224 337.023 53.3184C335.04 54.4127 332.228 54.96 328.647 54.96C324.519 54.96 321.322 54.2105 319.198 52.7311C317.255 51.3936 316.203 49.5088 316.041 47.1175V46.9349H310.052V47.1378C310.214 50.9882 311.792 54.1291 314.767 56.4596C317.903 58.9118 322.536 60.1481 328.566 60.1481C334.008 60.1481 338.318 59.1145 341.333 57.088C344.388 55.0412 345.926 52.1635 345.926 48.536C345.926 45.8001 345.116 43.6318 343.498 42.0917C341.899 40.5717 339.957 39.4772 337.711 38.8084H337.731Z" fill="white"/>
<path d="M266.713 21.6638C263.678 19.9412 260.157 19.0697 256.252 19.0697C252.347 19.0697 248.726 19.9615 245.59 21.7044C242.474 23.4472 239.985 25.9193 238.225 29.02C236.464 32.1206 235.554 35.7076 235.554 39.6594C235.554 43.6112 236.424 47.259 238.144 50.3394C239.864 53.4198 242.312 55.8518 245.408 57.5743C248.503 59.2969 252.125 60.1684 256.192 60.1684C261.291 60.1684 265.519 59.1145 268.757 57.0271C270.213 56.0949 271.468 54.9399 272.52 53.6024L272.56 53.5618C272.56 53.5618 272.641 53.5009 272.662 53.4401C272.682 53.3995 272.722 53.3589 272.742 53.3184L272.803 53.2377C272.985 52.9743 273.167 52.7105 273.349 52.4065L273.39 52.3254C273.39 52.3254 273.43 52.2447 273.451 52.2244C273.653 51.9002 273.855 51.5556 274.058 51.1503L274.098 51.0692C274.24 50.7854 274.381 50.5019 274.503 50.2182C274.584 50.056 274.644 49.8934 274.705 49.7313L274.766 49.5898C274.826 49.448 274.887 49.3265 274.928 49.1846C275.049 48.8401 275.17 48.5159 275.251 48.1916C275.251 48.1511 275.272 48.1104 275.292 48.0699C275.292 48.0091 275.332 47.9481 275.353 47.9076L275.413 47.6647C275.474 47.381 275.514 47.2184 275.514 47.2184L275.555 46.9958H275.332C275.332 46.9958 270.274 46.9755 269.485 46.9755H269.343L269.303 47.1175C269.222 47.3809 269.121 47.6848 268.999 48.009C268.777 48.5157 268.554 48.9614 268.332 49.3667L268.291 49.4478C268.291 49.4478 268.251 49.529 268.231 49.5695C268.028 49.914 267.765 50.2587 267.421 50.6842C267.3 50.8464 267.158 51.0084 267.017 51.1503C264.669 53.7038 261.028 55.0006 256.172 55.0006C252.105 55.0006 248.706 53.7643 246.116 51.3527C243.566 48.9816 242.049 45.7797 241.604 41.8279H276.283V41.6657C276.405 40.9969 276.465 40.1458 276.465 39.1527C276.465 35.3428 275.595 31.898 273.876 28.8582C272.156 25.8386 269.748 23.4269 266.693 21.7044L266.713 21.6638ZM241.705 36.8021C242.292 33.134 243.89 30.0943 246.46 27.8043C249.07 25.4535 252.368 24.2781 256.232 24.2781C260.097 24.2781 263.476 25.4738 266.126 27.8043C268.716 30.0943 270.193 33.134 270.476 36.8021H241.685H241.705Z" fill="white"/>
<path d="M328.019 0.0806467C312.197 0.0806467 298.499 9.34235 292.025 22.7176C285.55 9.32209 271.852 0.0806467 256.03 0.0806467C240.208 0.0806467 226.53 9.30178 220.055 22.6771C213.581 9.26125 199.863 0 184.02 0C168.178 0 154.46 9.28154 147.985 22.6974C141.49 9.32207 127.813 0.100932 112.011 0.100932C96.2085 0.100932 82.5107 9.34235 76.0158 22.7176C69.5615 9.30182 55.8232 0 39.9807 0C17.9265 0 0 17.9756 0 40.0448C0 62.114 17.9468 80.0891 39.9807 80.0891C55.7827 80.0891 69.4806 70.8482 75.9754 57.4729C82.4297 70.8887 96.168 80.191 112.011 80.191C127.853 80.191 141.571 70.909 148.046 57.4932C154.541 70.8685 168.218 80.0891 184.02 80.0891C199.822 80.0891 213.52 70.8685 219.995 57.4932C226.469 70.909 240.187 80.1703 256.03 80.1703C271.872 80.1703 285.55 70.909 292.025 57.5338C298.499 70.9293 312.197 80.1703 328.019 80.1703C350.073 80.1703 368 62.1947 368 40.1255C368 18.0562 350.053 0.0806467 328.019 0.0806467ZM328.019 74.8812C312.318 74.8812 299.025 64.3633 294.756 49.995C294.756 49.9342 294.776 49.8732 294.797 49.7922H289.212C289.212 49.7922 289.232 49.914 289.253 49.995C285.004 64.3633 271.711 74.8812 255.989 74.8812C240.268 74.8812 226.975 64.343 222.726 49.9545C222.726 49.9139 222.746 49.853 222.767 49.7922H217.203C217.203 49.7922 217.203 49.8936 217.243 49.9342C212.974 64.2822 199.701 74.7595 184 74.7595C168.299 74.7595 155.006 64.2619 150.757 49.9139C150.757 49.8734 150.757 49.8327 150.777 49.7922H145.213C145.213 49.7922 145.213 49.8734 145.233 49.9139C141.005 64.3025 127.691 74.8604 111.97 74.8604C96.249 74.8604 82.9153 64.3024 78.6866 49.8936C78.6866 49.8531 78.6866 49.8124 78.7068 49.7922H73.163C73.163 49.7922 73.163 49.8531 73.1832 49.8936C68.9342 64.2619 55.6411 74.7595 39.9402 74.7595C20.8199 74.7595 5.26061 59.1755 5.26061 40.0245C5.26061 20.8735 20.8199 5.28904 39.9402 5.28904C55.6411 5.28904 68.9342 15.8069 73.2034 30.1752H78.7473C83.0367 15.8475 96.2894 5.37018 111.97 5.37018C127.651 5.37018 140.924 15.8475 145.193 30.1752H150.737C154.986 15.8069 168.279 5.28904 184 5.28904C199.721 5.28904 213.014 15.8069 217.263 30.1752H222.787C227.076 15.8475 240.349 5.37018 256.01 5.37018C271.67 5.37018 284.963 15.8475 289.232 30.1752H294.797C299.086 15.8475 312.339 5.37018 328.019 5.37018C347.14 5.37018 362.699 20.9542 362.699 40.1052C362.699 59.2561 347.14 74.8407 328.019 74.8407V74.8812Z" fill="white"/>
<path d="M4.39347 137.223C1.46449 135.127 0 132.185 0 128.405C0 125.97 0.738557 123.845 2.21567 122.032C3.69278 120.219 5.71592 118.82 8.28194 117.836C10.8479 116.852 13.739 116.36 16.9552 116.36C19.7043 116.36 22.425 116.71 25.1236 117.41C27.819 118.11 30.0252 119.002 31.7358 120.09V114.418C31.7358 111.205 30.6185 108.796 28.3902 107.191C26.1588 105.587 23.1257 104.783 19.2877 104.783C15.4497 104.783 12.5586 105.47 10.3019 106.841C8.04522 108.216 6.91845 109.938 6.91845 112.009H1.39505C1.39505 109.73 2.12098 107.683 3.57285 105.87C5.02471 104.057 7.09835 102.62 9.79692 101.557C12.4923 100.495 15.6833 99.9648 19.3634 99.9648C24.7574 99.9648 29.0467 101.207 32.2377 103.695C35.4255 106.182 37.0225 109.783 37.0225 114.497V131.05C37.0225 133.538 38.1114 134.78 40.2892 134.78C41.3781 134.78 42.1829 134.6 42.7006 134.234V138.819C41.558 139.336 40.2892 139.594 38.8879 139.594C35.3592 139.594 33.1561 138.119 32.2756 135.164H31.9631C30.2524 136.719 27.9578 137.974 25.0794 138.932C22.2009 139.891 19.1551 140.37 15.9389 140.37C11.1667 140.37 7.31613 139.32 4.38715 137.223H4.39347ZM25.3571 134.234C28.002 133.355 30.1262 132.138 31.7358 130.583V124.523C30.1798 123.54 28.1567 122.748 25.6696 122.152C23.1793 121.556 20.6386 121.26 18.0473 121.26C14.364 121.26 11.3593 121.881 9.02365 123.126C6.6912 124.369 5.52339 126.131 5.52339 128.411C5.52339 130.848 6.58704 132.645 8.71118 133.812C10.8353 134.978 13.6128 135.562 17.0341 135.562C19.9379 135.562 22.7122 135.123 25.3571 134.241V134.234Z" fill="#C8B464"/>
<path d="M53.2045 139.594L41.5359 101.053H47.0593L56.9383 134.234H57.1719L67.8273 101.053H74.5185L85.2528 134.234H85.4864L95.2864 101.053H100.731L89.1413 139.594H81.9861L71.2518 106.337H71.0182L60.3628 139.594H53.2045Z" fill="#C8B464"/>
<path d="M106.759 137.223C103.83 135.127 102.366 132.185 102.366 128.405C102.366 125.97 103.104 123.845 104.582 122.032C106.059 120.219 108.082 118.82 110.648 117.836C113.214 116.852 116.105 116.36 119.321 116.36C122.07 116.36 124.791 116.71 127.489 117.41C130.185 118.11 132.391 119.002 134.102 120.09V114.418C134.102 111.205 132.984 108.796 130.756 107.191C128.525 105.587 125.492 104.783 121.654 104.783C117.816 104.783 114.924 105.47 112.668 106.841C110.411 108.216 109.284 109.938 109.284 112.009H103.761C103.761 109.73 104.487 107.683 105.939 105.87C107.391 104.057 109.464 102.62 112.163 101.557C114.858 100.495 118.049 99.9648 121.729 99.9648C127.123 99.9648 131.413 101.207 134.604 103.695C137.791 106.182 139.388 109.783 139.388 114.497V131.05C139.388 133.538 140.477 134.78 142.655 134.78C143.744 134.78 144.549 134.6 145.066 134.234V138.819C143.924 139.336 142.655 139.594 141.254 139.594C137.725 139.594 135.522 138.119 134.641 135.164H134.329C132.618 136.719 130.324 137.974 127.445 138.932C124.567 139.891 121.521 140.37 118.305 140.37C113.533 140.37 109.682 139.32 106.753 137.223H106.759ZM127.723 134.234C130.368 133.355 132.492 132.138 134.102 130.583V124.523C132.546 123.54 130.523 122.748 128.035 122.152C125.545 121.556 123.004 121.26 120.413 121.26C116.73 121.26 113.725 121.881 111.389 123.126C109.057 124.369 107.889 126.131 107.889 128.411C107.889 130.848 108.953 132.645 111.077 133.812C113.201 134.978 115.979 135.562 119.4 135.562C122.304 135.562 125.078 135.123 127.723 134.241V134.234Z" fill="#C8B464"/>
<path d="M186.546 139.594H180.47L176.37 129.59C174.902 125.993 173.485 125.151 169.029 125.151H153.383V139.594H148.169V100.255H171.004C179.864 100.255 184.674 105.593 184.674 112.224C184.674 118.35 181.079 122.846 176.117 123.521V124.309C179.409 124.533 180.776 125.939 182.597 130.265L186.546 139.594ZM153.232 120.487H171.004C176.676 120.487 179.46 117.398 179.46 112.845C179.46 108.292 176.676 105.202 171.004 105.202H153.232V120.487Z" fill="#C8B464"/>
<path d="M191.356 139.594V100.255H208.317C221.886 100.255 229.634 108.853 229.634 119.923C229.634 130.993 221.889 139.591 208.317 139.591H191.356V139.594ZM196.57 134.651H208.317C218.543 134.651 224.417 128.13 224.417 119.926C224.417 111.722 218.543 105.202 208.317 105.202H196.57V134.651Z" fill="#C8B464"/>
<path d="M239.359 136.952C236.247 134.518 234.691 131.255 234.691 127.162H240.293C240.293 129.909 241.382 132.034 243.56 133.534C245.737 135.038 248.928 135.789 253.126 135.789C256.756 135.789 259.584 135.234 261.604 134.118C263.627 133.005 264.637 131.412 264.637 129.338C264.637 127.837 264.091 126.67 263.002 125.841C261.913 125.012 260.578 124.403 258.997 124.016C257.415 123.628 255.171 123.199 252.268 122.732C248.688 122.162 245.797 121.566 243.594 120.945C241.388 120.323 239.51 119.261 237.954 117.76C236.398 116.259 235.622 114.159 235.622 111.467C235.622 107.841 237.124 105.016 240.132 102.998C243.14 100.977 247.107 99.968 252.034 99.968C257.27 99.968 261.421 101.109 264.479 103.386C267.537 105.665 269.068 108.67 269.068 112.4H263.545C263.545 110.07 262.544 108.216 260.55 106.845C258.552 105.473 255.739 104.786 252.11 104.786C248.48 104.786 245.939 105.369 244.02 106.536C242.101 107.702 241.142 109.269 241.142 111.237C241.142 112.741 241.672 113.904 242.736 114.733C243.799 115.563 245.135 116.171 246.741 116.559C248.348 116.947 250.579 117.375 253.432 117.842C257.011 118.413 259.915 119.021 262.143 119.668C264.372 120.317 266.278 121.389 267.859 122.893C269.441 124.397 270.233 126.494 270.233 129.186C270.233 132.762 268.727 135.559 265.723 137.58C262.715 139.601 258.489 140.61 253.044 140.61C247.028 140.61 242.464 139.393 239.352 136.959L239.359 136.952Z" fill="#C8B464"/>
</svg>
