<svg width="207" height="79" viewBox="0 0 207 79" fill="none" xmlns="http://www.w3.org/2000/svg">
<rect x="63.4182" y="3.30859" width="80.1635" height="75.0568" fill="black" stroke="#C8B464" stroke-width="0.5"/>
<rect x="64.8433" y="1.16992" width="77.432" height="2.25645" fill="black" stroke="#C8B464" stroke-width="0.5"/>
<rect x="4.76294" y="3.55859" width="4.963" height="74.5568" fill="black" stroke="#C8B464" stroke-width="0.5"/>
<rect x="0.962402" y="24.5786" width="3.41911" height="0.568847" fill="black" stroke="#C8B464" stroke-width="0.5"/>
<rect x="0.148451" y="24.0025" width="4.33477" height="0.296902" fill="black" stroke="#C8B464" stroke-width="0.296902"/>
<rect x="3.21875" y="1.41992" width="6.50689" height="1.75645" fill="black" stroke="#C8B464" stroke-width="0.5"/>
<rect x="-0.25" y="0.25" width="4.963" height="74.5568" transform="matrix(-1 0 0 1 201.987 3.30859)" fill="black" stroke="#C8B464" stroke-width="0.5"/>
<rect x="-0.25" y="0.25" width="3.41911" height="0.568847" transform="matrix(-1 0 0 1 205.788 24.3286)" fill="black" stroke="#C8B464" stroke-width="0.5"/>
<rect x="-0.148451" y="0.148451" width="4.33477" height="0.296902" transform="matrix(-1 0 0 1 206.703 23.854)" fill="black" stroke="#C8B464" stroke-width="0.296902"/>
<rect x="-0.25" y="0.25" width="6.50689" height="1.75645" transform="matrix(-1 0 0 1 203.531 1.16992)" fill="black" stroke="#C8B464" stroke-width="0.5"/>
<rect x="10.1072" y="3.55859" width="53.5361" height="74.5568" fill="black" stroke="#C8B464" stroke-width="0.5"/>
<rect x="7.61304" y="24.5786" width="58.5241" height="0.568847" fill="black" stroke="#C8B464" stroke-width="0.5"/>
<rect x="6.79909" y="24.0025" width="60.1523" height="0.296902" fill="black" stroke="#C8B464" stroke-width="0.296902"/>
<rect x="8.56323" y="1.41992" width="56.5052" height="1.75645" fill="black" stroke="#C8B464" stroke-width="0.5"/>
<path d="M36.9348 7.23877C46.4056 7.23899 54.0878 14.5984 54.2561 23.7231H19.6125C19.7781 14.7423 27.2229 7.47187 36.4875 7.24463L36.9348 7.23877Z" fill="black" stroke="#C8B464" stroke-width="0.5"/>
<path d="M54.1428 34.3179V78.1157H19.4895V34.3179H54.1428Z" stroke="#C8B464" stroke-width="0.5"/>
<path d="M45.4727 50.3489V78.1135H28.2773V50.3489H45.4727Z" stroke="#C8B464" stroke-width="0.5"/>
<line x1="9.85718" y1="45.8113" x2="63.8933" y2="45.8113" stroke="#C8B464" stroke-width="0.5"/>
<path d="M26.4709 40.9688V78.1162H21.2708V40.9688H26.4709Z" fill="black" stroke="#C8B464" stroke-width="0.5"/>
<path d="M26.5906 35.5054V40.5874H21.1521V35.5054H26.5906Z" fill="black" stroke="#C8B464" stroke-width="0.5"/>
<path d="M27.1775 34.3179C26.8803 34.4831 26.6656 34.777 26.6072 35.1245H21.1345C21.0761 34.7772 20.8621 34.4832 20.5652 34.3179H27.1775Z" fill="black" stroke="#C8B464" stroke-width="0.5"/>
<path d="M52.5984 40.9688V78.1162H47.3982V40.9688H52.5984Z" fill="black" stroke="#C8B464" stroke-width="0.5"/>
<path d="M52.718 35.5054V40.5874H47.2795V35.5054H52.718Z" fill="black" stroke="#C8B464" stroke-width="0.5"/>
<path d="M53.3049 34.3179C53.0077 34.4831 52.7931 34.777 52.7346 35.1245H47.262C47.2035 34.7772 46.9895 34.4832 46.6926 34.3179H53.3049Z" fill="black" stroke="#C8B464" stroke-width="0.5"/>
<line x1="9.85718" y1="33.9351" x2="63.8933" y2="33.9351" stroke="#C8B464" stroke-width="0.5"/>
<path d="M60.437 49.3977V53.4104H57.4927V49.3977H60.437Z" stroke="#C8B464" stroke-width="0.5"/>
<path d="M60.437 48.804V49.0168H57.4927V48.804H60.437Z" stroke="#C8B464" stroke-width="0.356282"/>
<path d="M60.437 53.7944V54.0073H57.4927V53.7944H60.437Z" stroke="#C8B464" stroke-width="0.356282"/>
<path d="M59.6055 55.4568V56.5007H58.3242V55.4568H59.6055Z" stroke="#C8B464" stroke-width="0.5"/>
<path d="M59.7866 54.3865C59.744 54.4173 59.7033 54.4478 59.6665 54.4783C59.484 54.6293 59.3645 54.8285 59.2925 54.9773C59.2762 55.011 59.2639 55.0445 59.2515 55.074H58.6528C58.636 55.0449 58.6173 55.0116 58.5952 54.9763C58.5107 54.8412 58.3857 54.662 58.2261 54.4968C58.1888 54.4583 58.1476 54.4222 58.106 54.3865H59.7866Z" stroke="#C8B464" stroke-width="0.5"/>
<path d="M59.2144 57.1189C59.1921 57.2068 59.1598 57.296 59.1196 57.3748C59.0799 57.4525 59.0388 57.508 59.0034 57.5408C58.968 57.5735 58.9549 57.5692 58.9644 57.5691C58.9742 57.5691 58.962 57.5738 58.9263 57.5408C58.8908 57.508 58.8489 57.4528 58.8091 57.3748C58.7689 57.296 58.7366 57.2068 58.7144 57.1189H59.2144Z" stroke="#C8B464" stroke-width="0.5"/>
<path d="M60.3899 48.0828C60.4088 48.1889 60.4218 48.3028 60.429 48.4246H60.3508C60.3581 48.3024 60.3715 48.1885 60.3899 48.0828Z" stroke="#C8B464" stroke-width="0.5" stroke-miterlimit="10"/>
<path d="M57.5396 48.0828C57.5584 48.1889 57.5715 48.3028 57.5786 48.4246H57.5005C57.5078 48.3024 57.5212 48.1885 57.5396 48.0828Z" stroke="#C8B464" stroke-width="0.5" stroke-miterlimit="10"/>
<path d="M58.4897 48.0828C58.5086 48.1889 58.5217 48.3028 58.5288 48.4246H58.4507C58.458 48.3024 58.4714 48.1885 58.4897 48.0828Z" stroke="#C8B464" stroke-width="0.5" stroke-miterlimit="10"/>
<path d="M59.4399 48.0828C59.4588 48.1889 59.4719 48.3028 59.479 48.4246H59.4009C59.4082 48.3024 59.4216 48.1885 59.4399 48.0828Z" stroke="#C8B464" stroke-width="0.5" stroke-miterlimit="10"/>
<path d="M16.0205 49.3977V53.4104H13.0762V49.3977H16.0205Z" stroke="#C8B464" stroke-width="0.5"/>
<path d="M16.0205 48.804V49.0168H13.0762V48.804H16.0205Z" stroke="#C8B464" stroke-width="0.356282"/>
<path d="M16.0205 53.7944V54.0073H13.0762V53.7944H16.0205Z" stroke="#C8B464" stroke-width="0.356282"/>
<path d="M15.189 55.4568V56.5007H13.9077V55.4568H15.189Z" stroke="#C8B464" stroke-width="0.5"/>
<path d="M15.3701 54.3865C15.3275 54.4173 15.2868 54.4478 15.25 54.4783C15.0675 54.6293 14.948 54.8285 14.876 54.9773C14.8597 55.011 14.8474 55.0445 14.835 55.074H14.2363C14.2195 55.0449 14.2008 55.0116 14.1787 54.9763C14.0942 54.8412 13.9692 54.662 13.8096 54.4968C13.7723 54.4583 13.7311 54.4222 13.6895 54.3865H15.3701Z" stroke="#C8B464" stroke-width="0.5"/>
<path d="M14.7979 57.1189C14.7756 57.2068 14.7433 57.296 14.7031 57.3748C14.6634 57.4525 14.6223 57.508 14.5869 57.5408C14.5515 57.5735 14.5384 57.5692 14.5479 57.5691C14.5577 57.5691 14.5455 57.5738 14.5098 57.5408C14.4743 57.508 14.4324 57.4528 14.3926 57.3748C14.3524 57.296 14.3201 57.2068 14.2979 57.1189H14.7979Z" stroke="#C8B464" stroke-width="0.5"/>
<path d="M15.9731 48.0828C15.992 48.1889 16.0051 48.3028 16.0122 48.4246H15.9341C15.9414 48.3024 15.9548 48.1885 15.9731 48.0828Z" stroke="#C8B464" stroke-width="0.5" stroke-miterlimit="10"/>
<path d="M13.123 48.0828C13.1419 48.1889 13.155 48.3028 13.1621 48.4246H13.084C13.0913 48.3024 13.1047 48.1885 13.123 48.0828Z" stroke="#C8B464" stroke-width="0.5" stroke-miterlimit="10"/>
<path d="M14.0732 48.0828C14.0921 48.1889 14.1052 48.3028 14.1123 48.4246H14.0342C14.0415 48.3024 14.0549 48.1885 14.0732 48.0828Z" stroke="#C8B464" stroke-width="0.5" stroke-miterlimit="10"/>
<path d="M15.0234 48.0828C15.0423 48.1889 15.0553 48.3028 15.0625 48.4246H14.9844C14.9917 48.3024 15.0051 48.1885 15.0234 48.0828Z" stroke="#C8B464" stroke-width="0.5" stroke-miterlimit="10"/>
<path d="M44.2856 51.4192V78.1155H29.4653V51.4192H44.2856Z" stroke="#C8B464" stroke-width="0.5"/>
<line x1="29.2153" y1="58.3462" x2="44.5355" y2="58.3462" stroke="#C8B464" stroke-width="0.5"/>
<line x1="29.2153" y1="70.6882" x2="44.5355" y2="70.6882" stroke="#C8B464" stroke-width="0.5"/>
<line x1="32.05" y1="78.3652" x2="32.05" y2="51.169" stroke="#C8B464" stroke-width="0.5"/>
<line x1="36.5737" y1="78.3652" x2="36.5737" y2="58.5966" stroke="#C8B464" stroke-width="0.5"/>
<line x1="41.0979" y1="78.3652" x2="41.0979" y2="51.169" stroke="#C8B464" stroke-width="0.5"/>
<path d="M40.9495 54.8254L36.8235 58.1604L32.6975 54.8254L36.8235 51.4905L40.9495 54.8254Z" stroke="#C8B464" stroke-width="0.5"/>
<rect x="143.357" y="3.55859" width="53.5362" height="74.5568" fill="black" stroke="#C8B464" stroke-width="0.5"/>
<rect x="140.863" y="24.5786" width="58.5241" height="0.568847" fill="black" stroke="#C8B464" stroke-width="0.5"/>
<rect x="140.048" y="24.0025" width="60.1523" height="0.296902" fill="black" stroke="#C8B464" stroke-width="0.296902"/>
<rect x="141.813" y="1.41992" width="56.5052" height="1.75645" fill="black" stroke="#C8B464" stroke-width="0.5"/>
<path d="M187.392 34.3179V78.1157H152.739V34.3179H187.392Z" stroke="#C8B464" stroke-width="0.5"/>
<path d="M178.722 50.3489V78.1135H161.527V50.3489H178.722Z" stroke="#C8B464" stroke-width="0.5"/>
<line x1="143.107" y1="45.8113" x2="197.143" y2="45.8113" stroke="#C8B464" stroke-width="0.5"/>
<path d="M159.72 40.9688V78.1162H154.52V40.9688H159.72Z" fill="black" stroke="#C8B464" stroke-width="0.5"/>
<path d="M159.84 35.5054V40.5874H154.401V35.5054H159.84Z" fill="black" stroke="#C8B464" stroke-width="0.5"/>
<path d="M160.427 34.3179C160.13 34.4831 159.915 34.777 159.856 35.1245H154.384C154.325 34.7772 154.111 34.4832 153.814 34.3179H160.427Z" fill="black" stroke="#C8B464" stroke-width="0.5"/>
<path d="M185.848 40.9688V78.1162H180.647V40.9688H185.848Z" fill="black" stroke="#C8B464" stroke-width="0.5"/>
<path d="M185.967 35.5054V40.5874H180.529V35.5054H185.967Z" fill="black" stroke="#C8B464" stroke-width="0.5"/>
<path d="M186.554 34.3179C186.257 34.4831 186.042 34.777 185.984 35.1245H180.511C180.453 34.7772 180.239 34.4832 179.942 34.3179H186.554Z" fill="black" stroke="#C8B464" stroke-width="0.5"/>
<line x1="143.107" y1="33.9351" x2="197.143" y2="33.9351" stroke="#C8B464" stroke-width="0.5"/>
<path d="M193.687 49.3977V53.4104H190.742V49.3977H193.687Z" stroke="#C8B464" stroke-width="0.5"/>
<path d="M193.687 48.804V49.0168H190.742V48.804H193.687Z" stroke="#C8B464" stroke-width="0.356282"/>
<path d="M193.687 53.7944V54.0073H190.742V53.7944H193.687Z" stroke="#C8B464" stroke-width="0.356283"/>
<path d="M192.855 55.4548V56.4988H191.574V55.4548H192.855Z" stroke="#C8B464" stroke-width="0.5"/>
<path d="M193.036 54.3865C192.993 54.4173 192.953 54.4478 192.916 54.4783C192.733 54.6293 192.614 54.8285 192.542 54.9773C192.526 55.011 192.513 55.0445 192.501 55.074H191.902C191.885 55.0449 191.867 55.0116 191.845 54.9763C191.76 54.8412 191.635 54.662 191.476 54.4968C191.438 54.4583 191.397 54.4222 191.355 54.3865H193.036Z" stroke="#C8B464" stroke-width="0.5"/>
<path d="M192.464 57.1189C192.442 57.2068 192.409 57.296 192.369 57.3748C192.329 57.4525 192.288 57.508 192.253 57.5408C192.217 57.5735 192.204 57.5692 192.214 57.5691C192.224 57.5691 192.212 57.5738 192.176 57.5408C192.14 57.508 192.098 57.4528 192.059 57.3748C192.018 57.296 191.986 57.2068 191.964 57.1189H192.464Z" stroke="#C8B464" stroke-width="0.5"/>
<path d="M193.64 48.0828C193.659 48.1889 193.672 48.3028 193.679 48.4246H193.601C193.608 48.3024 193.621 48.1885 193.64 48.0828Z" stroke="#C8B464" stroke-width="0.5" stroke-miterlimit="10"/>
<path d="M190.789 48.0828C190.808 48.1889 190.821 48.3028 190.828 48.4246H190.75C190.757 48.3024 190.771 48.1885 190.789 48.0828Z" stroke="#C8B464" stroke-width="0.5" stroke-miterlimit="10"/>
<path d="M191.739 48.0828C191.758 48.1889 191.771 48.3028 191.778 48.4246H191.7C191.707 48.3024 191.721 48.1885 191.739 48.0828Z" stroke="#C8B464" stroke-width="0.5" stroke-miterlimit="10"/>
<path d="M192.689 48.0828C192.708 48.1889 192.721 48.3028 192.729 48.4246H192.65C192.658 48.3024 192.671 48.1885 192.689 48.0828Z" stroke="#C8B464" stroke-width="0.5" stroke-miterlimit="10"/>
<path d="M149.27 49.3977V53.4104H146.325V49.3977H149.27Z" stroke="#C8B464" stroke-width="0.5"/>
<path d="M149.27 48.804V49.0168H146.325V48.804H149.27Z" stroke="#C8B464" stroke-width="0.356282"/>
<path d="M149.27 53.7944V54.0073H146.325V53.7944H149.27Z" stroke="#C8B464" stroke-width="0.356283"/>
<path d="M148.438 55.4548V56.4988H147.157V55.4548H148.438Z" stroke="#C8B464" stroke-width="0.5"/>
<path d="M148.619 54.3865C148.577 54.4173 148.536 54.4478 148.499 54.4783C148.317 54.6293 148.197 54.8285 148.125 54.9773C148.109 55.011 148.097 55.0445 148.084 55.074H147.486C147.469 55.0449 147.45 55.0116 147.428 54.9763C147.343 54.8412 147.218 54.662 147.059 54.4968C147.022 54.4583 146.98 54.4222 146.939 54.3865H148.619Z" stroke="#C8B464" stroke-width="0.5"/>
<path d="M148.047 57.1189C148.025 57.2068 147.993 57.296 147.952 57.3748C147.913 57.4525 147.872 57.508 147.836 57.5408C147.801 57.5735 147.788 57.5692 147.797 57.5691C147.807 57.5691 147.795 57.5738 147.759 57.5408C147.724 57.508 147.682 57.4528 147.642 57.3748C147.602 57.296 147.569 57.2068 147.547 57.1189H148.047Z" stroke="#C8B464" stroke-width="0.5"/>
<path d="M149.223 48.0828C149.242 48.1889 149.255 48.3028 149.262 48.4246H149.184C149.191 48.3024 149.205 48.1885 149.223 48.0828Z" stroke="#C8B464" stroke-width="0.5" stroke-miterlimit="10"/>
<path d="M146.372 48.0828C146.391 48.1889 146.404 48.3028 146.411 48.4246H146.333C146.341 48.3024 146.354 48.1885 146.372 48.0828Z" stroke="#C8B464" stroke-width="0.5" stroke-miterlimit="10"/>
<path d="M147.323 48.0828C147.341 48.1889 147.354 48.3028 147.362 48.4246H147.283C147.291 48.3024 147.304 48.1885 147.323 48.0828Z" stroke="#C8B464" stroke-width="0.5" stroke-miterlimit="10"/>
<path d="M148.273 48.0828C148.292 48.1889 148.305 48.3028 148.312 48.4246H148.234C148.241 48.3024 148.254 48.1885 148.273 48.0828Z" stroke="#C8B464" stroke-width="0.5" stroke-miterlimit="10"/>
<path d="M177.535 51.4192V78.1155H162.715V51.4192H177.535Z" stroke="#C8B464" stroke-width="0.5"/>
<line x1="162.465" y1="58.3462" x2="177.785" y2="58.3462" stroke="#C8B464" stroke-width="0.5"/>
<line x1="162.465" y1="70.6863" x2="177.785" y2="70.6863" stroke="#C8B464" stroke-width="0.5"/>
<line x1="165.299" y1="78.3652" x2="165.299" y2="51.169" stroke="#C8B464" stroke-width="0.5"/>
<line x1="169.823" y1="78.3652" x2="169.823" y2="58.5966" stroke="#C8B464" stroke-width="0.5"/>
<line x1="174.347" y1="78.3652" x2="174.347" y2="51.169" stroke="#C8B464" stroke-width="0.5"/>
<path d="M174.199 54.8254L170.073 58.1604L165.947 54.8254L170.073 51.4905L174.199 54.8254Z" stroke="#C8B464" stroke-width="0.5"/>
<rect x="63.4182" y="38.5818" width="80.1635" height="1.06885" fill="black" stroke="#C8B464" stroke-width="0.5"/>
<rect x="63.7747" y="64.5886" width="79.451" height="0.593804" fill="black" stroke="#C8B464" stroke-width="0.5"/>
<rect x="62.8245" y="38.1052" width="81.4699" height="0.593804" fill="black" stroke="#C8B464" stroke-width="0.5"/>
<rect x="63.7747" y="64.2329" width="79.451" height="0.475043" fill="black" stroke="#C8B464" stroke-width="0.5"/>
<line x1="143.226" y1="46.1938" x2="63.7749" y2="46.1938" stroke="#C8B464" stroke-width="0.5"/>
<mask id="path-99-inside-1_17_772" fill="white">
<path d="M65.3184 45.5867H68.9999V45.943H65.3184V45.5867Z"/>
</mask>
<path d="M65.3184 45.5867H68.9999V45.943H65.3184V45.5867Z" fill="black"/>
<path d="M65.3184 45.5867V45.0867H64.8184V45.5867H65.3184ZM68.9999 45.5867H69.4999V45.0867H68.9999V45.5867ZM68.9999 45.943V46.443H69.4999V45.943H68.9999ZM65.3184 45.943H64.8184V46.443H65.3184V45.943ZM65.3184 45.5867V46.0867H68.9999V45.5867V45.0867H65.3184V45.5867ZM68.9999 45.5867H68.4999V45.943H68.9999H69.4999V45.5867H68.9999ZM68.9999 45.943V45.443H65.3184V45.943V46.443H68.9999V45.943ZM65.3184 45.943H65.8184V45.5867H65.3184H64.8184V45.943H65.3184Z" fill="#C8B464" mask="url(#path-99-inside-1_17_772)"/>
<path d="M68.5229 46.075C68.4615 46.1329 68.3788 46.1686 68.2876 46.1687H66.0308C65.9396 46.1687 65.8569 46.1329 65.7954 46.075H68.5229Z" fill="black" stroke="#C8B464" stroke-width="0.296902"/>
<path d="M68.3933 46.5496V64.1013H65.9246V46.5496H68.3933Z" fill="black" stroke="#C8B464" stroke-width="0.5"/>
<mask id="path-103-inside-2_17_772" fill="white">
<path d="M107.597 45.5867H111.279V45.943H107.597V45.5867Z"/>
</mask>
<path d="M107.597 45.5867H111.279V45.943H107.597V45.5867Z" fill="black"/>
<path d="M107.597 45.5867V45.0867H107.097V45.5867H107.597ZM111.279 45.5867H111.779V45.0867H111.279V45.5867ZM111.279 45.943V46.443H111.779V45.943H111.279ZM107.597 45.943H107.097V46.443H107.597V45.943ZM107.597 45.5867V46.0867H111.279V45.5867V45.0867H107.597V45.5867ZM111.279 45.5867H110.779V45.943H111.279H111.779V45.5867H111.279ZM111.279 45.943V45.443H107.597V45.943V46.443H111.279V45.943ZM107.597 45.943H108.097V45.5867H107.597H107.097V45.943H107.597Z" fill="#C8B464" mask="url(#path-103-inside-2_17_772)"/>
<path d="M110.802 46.075C110.741 46.1329 110.658 46.1686 110.567 46.1687H108.31C108.219 46.1687 108.136 46.1329 108.074 46.075H110.802Z" fill="black" stroke="#C8B464" stroke-width="0.296902"/>
<path d="M110.672 46.5496V64.1013H108.204V46.5496H110.672Z" fill="black" stroke="#C8B464" stroke-width="0.5"/>
<mask id="path-107-inside-3_17_772" fill="white">
<path d="M82.6572 45.5867H86.3388V45.943H82.6572V45.5867Z"/>
</mask>
<path d="M82.6572 45.5867H86.3388V45.943H82.6572V45.5867Z" fill="black"/>
<path d="M82.6572 45.5867V45.0867H82.1572V45.5867H82.6572ZM86.3388 45.5867H86.8388V45.0867H86.3388V45.5867ZM86.3388 45.943V46.443H86.8388V45.943H86.3388ZM82.6572 45.943H82.1572V46.443H82.6572V45.943ZM82.6572 45.5867V46.0867H86.3388V45.5867V45.0867H82.6572V45.5867ZM86.3388 45.5867H85.8388V45.943H86.3388H86.8388V45.5867H86.3388ZM86.3388 45.943V45.443H82.6572V45.943V46.443H86.3388V45.943ZM82.6572 45.943H83.1572V45.5867H82.6572H82.1572V45.943H82.6572Z" fill="#C8B464" mask="url(#path-107-inside-3_17_772)"/>
<path d="M85.8623 46.075C85.8008 46.1329 85.7181 46.1686 85.627 46.1687H83.3701C83.2789 46.1687 83.1963 46.1329 83.1348 46.075H85.8623Z" fill="black" stroke="#C8B464" stroke-width="0.296902"/>
<path d="M85.7324 46.5496V64.1013H83.2637V46.5496H85.7324Z" fill="black" stroke="#C8B464" stroke-width="0.5"/>
<mask id="path-111-inside-4_17_772" fill="white">
<path d="M124.936 45.5867H128.618V45.943H124.936V45.5867Z"/>
</mask>
<path d="M124.936 45.5867H128.618V45.943H124.936V45.5867Z" fill="black"/>
<path d="M124.936 45.5867V45.0867H124.436V45.5867H124.936ZM128.618 45.5867H129.118V45.0867H128.618V45.5867ZM128.618 45.943V46.443H129.118V45.943H128.618ZM124.936 45.943H124.436V46.443H124.936V45.943ZM124.936 45.5867V46.0867H128.618V45.5867V45.0867H124.936V45.5867ZM128.618 45.5867H128.118V45.943H128.618H129.118V45.5867H128.618ZM128.618 45.943V45.443H124.936V45.943V46.443H128.618V45.943ZM124.936 45.943H125.436V45.5867H124.936H124.436V45.943H124.936Z" fill="#C8B464" mask="url(#path-111-inside-4_17_772)"/>
<path d="M128.141 46.075C128.08 46.1329 127.997 46.1686 127.906 46.1687H125.649C125.558 46.1687 125.475 46.1329 125.414 46.075H128.141Z" fill="black" stroke="#C8B464" stroke-width="0.296902"/>
<path d="M128.011 46.5496V64.1013H125.542V46.5496H128.011Z" fill="black" stroke="#C8B464" stroke-width="0.5"/>
<mask id="path-115-inside-5_17_772" fill="white">
<path d="M78.3821 45.5867H82.0637V45.943H78.3821V45.5867Z"/>
</mask>
<path d="M78.3821 45.5867H82.0637V45.943H78.3821V45.5867Z" fill="black"/>
<path d="M78.3821 45.5867V45.0867H77.8821V45.5867H78.3821ZM82.0637 45.5867H82.5637V45.0867H82.0637V45.5867ZM82.0637 45.943V46.443H82.5637V45.943H82.0637ZM78.3821 45.943H77.8821V46.443H78.3821V45.943ZM78.3821 45.5867V46.0867H82.0637V45.5867V45.0867H78.3821V45.5867ZM82.0637 45.5867H81.5637V45.943H82.0637H82.5637V45.5867H82.0637ZM82.0637 45.943V45.443H78.3821V45.943V46.443H82.0637V45.943ZM78.3821 45.943H78.8821V45.5867H78.3821H77.8821V45.943H78.3821Z" fill="#C8B464" mask="url(#path-115-inside-5_17_772)"/>
<path d="M81.5867 46.075C81.5252 46.1329 81.4425 46.1686 81.3513 46.1687H79.0945C79.0033 46.1687 78.9207 46.1329 78.8591 46.075H81.5867Z" fill="black" stroke="#C8B464" stroke-width="0.296902"/>
<path d="M81.457 46.5496V64.1013H78.9883V46.5496H81.457Z" fill="black" stroke="#C8B464" stroke-width="0.5"/>
<mask id="path-119-inside-6_17_772" fill="white">
<path d="M120.661 45.5867H124.343V45.943H120.661V45.5867Z"/>
</mask>
<path d="M120.661 45.5867H124.343V45.943H120.661V45.5867Z" fill="black"/>
<path d="M120.661 45.5867V45.0867H120.161V45.5867H120.661ZM124.343 45.5867H124.843V45.0867H124.343V45.5867ZM124.343 45.943V46.443H124.843V45.943H124.343ZM120.661 45.943H120.161V46.443H120.661V45.943ZM120.661 45.5867V46.0867H124.343V45.5867V45.0867H120.661V45.5867ZM124.343 45.5867H123.843V45.943H124.343H124.843V45.5867H124.343ZM124.343 45.943V45.443H120.661V45.943V46.443H124.343V45.943ZM120.661 45.943H121.161V45.5867H120.661H120.161V45.943H120.661Z" fill="#C8B464" mask="url(#path-119-inside-6_17_772)"/>
<path d="M123.866 46.075C123.804 46.1329 123.722 46.1686 123.63 46.1687H121.374C121.282 46.1687 121.2 46.1329 121.138 46.075H123.866Z" fill="black" stroke="#C8B464" stroke-width="0.296902"/>
<path d="M123.736 46.5496V64.1013H121.267V46.5496H123.736Z" fill="black" stroke="#C8B464" stroke-width="0.5"/>
<mask id="path-123-inside-7_17_772" fill="white">
<path d="M95.7212 45.5867H99.4028V45.943H95.7212V45.5867Z"/>
</mask>
<path d="M95.7212 45.5867H99.4028V45.943H95.7212V45.5867Z" fill="black"/>
<path d="M95.7212 45.5867V45.0867H95.2212V45.5867H95.7212ZM99.4028 45.5867H99.9028V45.0867H99.4028V45.5867ZM99.4028 45.943V46.443H99.9028V45.943H99.4028ZM95.7212 45.943H95.2212V46.443H95.7212V45.943ZM95.7212 45.5867V46.0867H99.4028V45.5867V45.0867H95.7212V45.5867ZM99.4028 45.5867H98.9028V45.943H99.4028H99.9028V45.5867H99.4028ZM99.4028 45.943V45.443H95.7212V45.943V46.443H99.4028V45.943ZM95.7212 45.943H96.2212V45.5867H95.7212H95.2212V45.943H95.7212Z" fill="#C8B464" mask="url(#path-123-inside-7_17_772)"/>
<path d="M98.9258 46.075C98.8643 46.1329 98.7816 46.1686 98.6904 46.1687H96.4336C96.3424 46.1687 96.2598 46.1329 96.1982 46.075H98.9258Z" fill="black" stroke="#C8B464" stroke-width="0.296902"/>
<path d="M98.7964 46.5496V64.1013H96.3276V46.5496H98.7964Z" fill="black" stroke="#C8B464" stroke-width="0.5"/>
<mask id="path-127-inside-8_17_772" fill="white">
<path d="M138 45.5867H141.682V45.943H138V45.5867Z"/>
</mask>
<path d="M138 45.5867H141.682V45.943H138V45.5867Z" fill="black"/>
<path d="M138 45.5867V45.0867H137.5V45.5867H138ZM141.682 45.5867H142.182V45.0867H141.682V45.5867ZM141.682 45.943V46.443H142.182V45.943H141.682ZM138 45.943H137.5V46.443H138V45.943ZM138 45.5867V46.0867H141.682V45.5867V45.0867H138V45.5867ZM141.682 45.5867H141.182V45.943H141.682H142.182V45.5867H141.682ZM141.682 45.943V45.443H138V45.943V46.443H141.682V45.943ZM138 45.943H138.5V45.5867H138H137.5V45.943H138Z" fill="#C8B464" mask="url(#path-127-inside-8_17_772)"/>
<path d="M141.205 46.075C141.143 46.1329 141.06 46.1686 140.969 46.1687H138.712C138.621 46.1687 138.539 46.1329 138.477 46.075H141.205Z" fill="black" stroke="#C8B464" stroke-width="0.296902"/>
<path d="M141.075 46.5496V64.1013H138.606V46.5496H141.075Z" fill="black" stroke="#C8B464" stroke-width="0.5"/>
<rect x="69.4873" y="46.1938" width="8.40706" height="17.4329" fill="black" stroke="#C8B464" stroke-width="0.5"/>
<rect x="70.0811" y="46.7878" width="7.21945" height="16.2453" fill="black" stroke="#C8B464" stroke-width="0.5"/>
<line x1="77.5505" y1="51.8955" x2="69.8311" y2="51.8955" stroke="#C8B464" stroke-width="0.5"/>
<line x1="73.8816" y1="51.6455" x2="73.8816" y2="63.2841" stroke="#C8B464" stroke-width="0.5"/>
<rect x="111.766" y="46.1938" width="8.40706" height="17.4329" fill="black" stroke="#C8B464" stroke-width="0.5"/>
<rect x="112.36" y="46.7878" width="7.21945" height="16.2453" fill="black" stroke="#C8B464" stroke-width="0.5"/>
<line x1="119.83" y1="51.8955" x2="112.11" y2="51.8955" stroke="#C8B464" stroke-width="0.5"/>
<line x1="116.16" y1="51.6455" x2="116.16" y2="63.2841" stroke="#C8B464" stroke-width="0.5"/>
<rect x="86.8267" y="46.1938" width="8.40706" height="17.4329" fill="black" stroke="#C8B464" stroke-width="0.5"/>
<rect x="87.4204" y="46.7878" width="7.21945" height="16.2453" fill="black" stroke="#C8B464" stroke-width="0.5"/>
<line x1="94.8901" y1="51.8955" x2="87.1707" y2="51.8955" stroke="#C8B464" stroke-width="0.5"/>
<line x1="91.2209" y1="51.6455" x2="91.2209" y2="63.2841" stroke="#C8B464" stroke-width="0.5"/>
<rect x="129.105" y="46.1938" width="8.40706" height="17.4329" fill="black" stroke="#C8B464" stroke-width="0.5"/>
<rect x="129.699" y="46.7878" width="7.21945" height="16.2453" fill="black" stroke="#C8B464" stroke-width="0.5"/>
<line x1="137.168" y1="51.8955" x2="129.449" y2="51.8955" stroke="#C8B464" stroke-width="0.5"/>
<line x1="133.499" y1="51.6455" x2="133.499" y2="63.2841" stroke="#C8B464" stroke-width="0.5"/>
<path d="M170.983 7.23877C180.454 7.23899 188.136 14.5984 188.304 23.7231H153.661C153.826 14.7423 161.271 7.47187 170.536 7.24463L170.983 7.23877Z" fill="black" stroke="#C8B464" stroke-width="0.5"/>
</svg>
