<svg width="670" height="256" viewBox="0 0 670 256" fill="none" xmlns="http://www.w3.org/2000/svg">
<path d="M239.886 98.1813C236.128 98.1813 234.286 96.0782 234.286 91.7244V61.5432C234.286 52.8725 231.303 46.1577 225.445 41.5825C219.625 37.0073 211.668 34.7194 201.833 34.7194C195.128 34.7194 189.234 35.7157 184.298 37.6343C179.362 39.5898 175.494 42.283 172.841 45.6037C170.152 48.9612 168.826 52.7988 168.826 57.005V57.3365H179.546V57.005C179.546 53.3892 181.572 50.29 185.55 47.8917C189.566 45.4196 195.018 44.202 201.722 44.202C208.426 44.202 214.099 45.6407 218.078 48.5186C222.02 51.3597 224.009 55.7135 224.009 61.4324V71.1367C220.951 69.2919 217.046 67.7422 212.405 66.5246C207.506 65.2332 202.459 64.6059 197.449 64.6059C191.592 64.6059 186.25 65.5283 181.572 67.3362C176.857 69.1442 173.099 71.7633 170.41 75.084C167.684 78.4416 166.321 82.4263 166.321 86.9276C166.321 93.9011 169.047 99.3993 174.462 103.273C179.841 107.111 186.95 109.066 195.681 109.066C201.538 109.066 207.174 108.18 212.405 106.409C217.599 104.675 221.835 102.388 224.966 99.5469H225.151C226.845 104.897 230.971 107.627 237.418 107.627C239.996 107.627 242.391 107.148 244.49 106.188L244.675 106.115V96.8535L244.122 97.2219C243.238 97.8492 241.838 98.1443 239.923 98.1443L239.886 98.1813ZM223.972 90.7281C221.099 93.4584 217.267 95.6354 212.589 97.2219C207.837 98.8085 202.79 99.6207 197.559 99.6207C191.408 99.6207 186.398 98.5504 182.603 96.4842C178.809 94.418 176.967 91.2814 176.967 86.9276C176.967 82.9428 179.03 79.8074 183.156 77.5936C187.319 75.3798 192.807 74.2354 199.401 74.2354C204.043 74.2354 208.684 74.7887 213.179 75.8587C217.562 76.9287 221.172 78.3312 223.935 80.0285V90.7281H223.972Z" fill="white"/>
<path d="M95.0775 39.9214C89.5519 37.0435 83.0317 35.5679 75.6273 35.5679H44.0208V107.332H75.6273C83.0317 107.332 89.5887 105.856 95.0775 102.978C100.566 100.1 104.876 95.8943 107.823 90.5074C110.77 85.1205 112.281 78.6999 112.281 71.4313C112.281 64.1626 110.77 57.7429 107.823 52.356C104.876 46.9691 100.566 42.7993 95.0775 39.8845V39.9214ZM98.3192 85.526C96.2195 89.5108 93.162 92.6102 89.2204 94.7871C85.2788 96.964 80.6004 98.0705 75.2958 98.0705H54.2616V44.792H75.2958C80.6004 44.792 85.2788 45.8994 89.2204 48.0763C93.162 50.2532 96.2195 53.3886 98.3192 57.3365C100.419 61.3213 101.487 66.0444 101.487 71.4313C101.487 76.8182 100.419 81.5412 98.3192 85.526Z" fill="white"/>
<path d="M308.33 107.332H318.607V76.0803H363.033V66.8561H318.607V44.792H365.28V35.531H308.33V107.332Z" fill="white"/>
<path d="M614.891 70.6566C610.839 69.4759 605.498 68.3694 599.014 67.3362C593.857 66.4876 589.768 65.7123 586.895 65.0113C584.021 64.3103 581.627 63.2038 579.748 61.7279C577.906 60.2889 576.985 58.2222 576.985 55.6394C576.985 52.208 578.68 49.4039 582.069 47.3746C585.495 45.3084 590.357 44.239 596.583 44.239C602.808 44.239 608.187 45.4934 611.723 47.9286C615.002 50.2162 616.77 53.2785 616.991 57.0789V57.4104H627.747V57.042C627.526 50.4744 624.69 45.1241 619.275 41.0655C613.676 36.8961 605.976 34.7563 596.436 34.7563C587.447 34.7563 580.117 36.638 574.591 40.3277C569.065 44.0543 566.229 49.3674 566.229 56.0457C566.229 61.0267 567.702 64.9744 570.576 67.7785C573.412 70.5458 576.912 72.5386 580.964 73.6824C584.979 74.8261 590.284 75.9326 596.767 76.9657C601.998 77.8144 606.124 78.5897 608.96 79.2907C611.76 79.9917 614.191 81.0982 616.107 82.5741C617.986 84.0131 618.943 86.0798 618.943 88.6626C618.943 92.3522 617.212 95.0818 613.602 97.0742C609.992 99.0666 604.871 100.063 598.351 100.063C590.836 100.063 585.016 98.6984 581.148 96.005C577.612 93.5698 575.696 90.1383 575.401 85.7845V85.4521H564.498V85.8215C564.792 92.8318 567.666 98.5502 573.081 102.793C578.79 107.258 587.226 109.509 598.204 109.509C608.113 109.509 615.959 107.627 621.448 103.937C627.011 100.211 629.81 94.9716 629.81 88.3671C629.81 83.3861 628.337 79.4384 625.39 76.6343C622.48 73.867 618.943 71.8742 614.854 70.6566H614.891Z" fill="white"/>
<path d="M485.592 39.4422C480.066 36.306 473.656 34.7194 466.547 34.7194C459.437 34.7194 452.843 36.343 447.133 39.5161C441.46 42.6892 436.929 47.1901 433.724 52.8352C430.52 58.4804 428.862 65.0111 428.862 72.2059C428.862 79.4008 430.446 86.0422 433.577 91.6505C436.708 97.2588 441.166 101.687 446.802 104.823C452.438 107.959 459.032 109.546 466.436 109.546C475.719 109.546 483.418 107.627 489.312 103.827C491.964 102.129 494.248 100.026 496.164 97.5913L496.238 97.5174C496.238 97.5174 496.385 97.4065 496.422 97.2958C496.459 97.222 496.532 97.148 496.569 97.0742L496.68 96.9274C497.011 96.4477 497.343 95.9675 497.674 95.414L497.748 95.2663C497.748 95.2663 497.822 95.1194 497.858 95.0825C498.227 94.4922 498.595 93.8648 498.964 93.1269L499.037 92.9792C499.295 92.4626 499.553 91.9464 499.774 91.4298C499.921 91.1346 500.032 90.8386 500.142 90.5434L500.253 90.2858C500.363 90.0275 500.474 89.8063 500.548 89.5481C500.769 88.9208 500.99 88.3305 501.137 87.7402C501.137 87.6664 501.174 87.5924 501.211 87.5186C501.211 87.4079 501.284 87.2969 501.321 87.2231L501.432 86.7808C501.542 86.2643 501.616 85.9683 501.616 85.9683L501.69 85.5629H501.284C501.284 85.5629 492.075 85.526 490.638 85.526H490.381L490.307 85.7845C490.16 86.2642 489.975 86.8174 489.754 87.4078C489.349 88.3302 488.944 89.1416 488.539 89.8795L488.465 90.0273C488.465 90.0273 488.391 90.1751 488.354 90.2489C487.986 90.8761 487.507 91.5035 486.881 92.2784C486.66 92.5735 486.402 92.8686 486.144 93.1269C481.871 97.7759 475.24 100.137 466.399 100.137C458.995 100.137 452.806 97.886 448.091 93.4953C443.45 89.1784 440.687 83.349 439.876 76.1541H503.016V75.8587C503.237 74.6411 503.347 73.0915 503.347 71.2835C503.347 64.347 501.763 58.0752 498.632 52.5407C495.501 47.0431 491.117 42.6523 485.555 39.5161L485.592 39.4422ZM440.061 67.0039C441.129 60.3256 444.039 54.7913 448.717 50.622C453.469 46.342 459.474 44.202 466.51 44.202C473.546 44.202 479.698 46.3789 484.523 50.622C489.239 54.7913 491.928 60.3256 492.443 67.0039H440.024H440.061Z" fill="white"/>
<path d="M597.209 0.14683C568.402 0.14683 543.463 17.0092 531.675 41.3609C519.887 16.9723 494.948 0.14683 466.141 0.14683C437.335 0.14683 412.432 16.9353 400.644 41.287C388.856 16.8615 363.881 0 335.037 0C306.193 0 281.217 16.8985 269.429 41.324C257.604 16.9722 232.702 0.183762 203.932 0.183762C175.162 0.183762 150.223 17.0092 138.398 41.3609C126.647 16.9354 101.635 0 72.7909 0C32.638 0 0 32.7273 0 72.9077C0 113.088 32.6748 145.814 72.7909 145.814C101.561 145.814 126.5 128.99 138.325 104.638C150.076 129.064 175.089 146 203.932 146C232.776 146 257.752 129.101 269.54 104.675C281.365 129.027 306.267 145.814 335.037 145.814C363.807 145.814 388.746 129.027 400.534 104.675C412.322 129.101 437.298 145.962 466.141 145.962C494.985 145.962 519.887 129.101 531.675 104.749C543.463 129.138 568.402 145.962 597.209 145.962C637.362 145.962 670 113.235 670 73.0545C670 32.8741 637.325 0.14683 597.209 0.14683ZM597.209 136.333C568.623 136.333 544.421 117.183 536.648 91.0236C536.648 90.9129 536.685 90.8018 536.722 90.6542H526.555C526.555 90.6542 526.592 90.876 526.629 91.0236C518.893 117.183 494.69 136.333 466.068 136.333C437.445 136.333 413.243 117.146 405.507 90.9497C405.507 90.8759 405.544 90.7649 405.581 90.6542H395.45C395.45 90.6542 395.45 90.839 395.524 90.9128C387.751 117.036 363.586 136.111 335 136.111C306.414 136.111 282.212 116.999 274.476 90.8758C274.476 90.802 274.476 90.728 274.513 90.6542H264.383C264.383 90.6542 264.383 90.802 264.419 90.8758C256.72 117.072 232.481 136.295 203.859 136.295C175.236 136.295 150.96 117.072 143.261 90.8389C143.261 90.7651 143.261 90.6911 143.298 90.6542H133.204C133.204 90.6542 133.204 90.7651 133.241 90.8389C125.505 116.999 101.303 136.111 72.7172 136.111C37.9058 136.111 9.57775 107.738 9.57775 72.8707C9.57775 38.0035 37.9058 9.6295 72.7172 9.6295C101.303 9.6295 125.505 28.7789 133.278 54.9386H143.371C151.181 28.8527 175.31 9.77723 203.859 9.77723C232.408 9.77723 256.573 28.8527 264.346 54.9386H274.439C282.175 28.7789 306.377 9.6295 335 9.6295C363.623 9.6295 387.825 28.7789 395.561 54.9386H405.617C413.427 28.8527 437.592 9.77723 466.105 9.77723C494.617 9.77723 518.819 28.8527 526.592 54.9386H536.722C544.532 28.8527 568.66 9.77723 597.209 9.77723C632.021 9.77723 660.349 38.1503 660.349 73.0176C660.349 107.885 632.021 136.259 597.209 136.259V136.333Z" fill="white"/>
<path d="M97.999 249.835C92.6663 246.017 90 240.662 90 233.779C90 229.347 91.3447 225.478 94.034 222.177C96.7233 218.877 100.407 216.328 105.079 214.537C109.75 212.746 115.014 211.85 120.87 211.85C125.875 211.85 130.828 212.487 135.741 213.762C140.649 215.036 144.665 216.661 147.78 218.641V208.314C147.78 202.465 145.746 198.079 141.689 195.157C137.626 192.235 132.104 190.771 125.116 190.771C118.129 190.771 112.865 192.023 108.756 194.52C104.648 197.023 102.596 200.157 102.596 203.928H92.5399C92.5399 199.778 93.8616 196.053 96.5049 192.752C99.1482 189.451 102.924 186.833 107.837 184.899C112.744 182.964 118.554 182 125.254 182C135.075 182 142.884 184.262 148.694 188.791C154.497 193.32 157.405 199.876 157.405 208.458V238.595C157.405 243.124 159.388 245.386 163.353 245.386C165.335 245.386 166.8 245.059 167.743 244.393V252.739C165.663 253.681 163.353 254.152 160.801 254.152C154.377 254.152 150.366 251.465 148.763 246.086H148.194C145.079 248.916 140.902 251.201 135.661 252.946C130.42 254.691 124.875 255.564 119.019 255.564C110.331 255.564 103.32 253.652 97.9875 249.835H97.999ZM136.166 244.393C140.982 242.791 144.849 240.575 147.78 237.745V226.712C144.947 224.921 141.264 223.48 136.735 222.395C132.201 221.311 127.576 220.771 122.858 220.771C116.152 220.771 110.681 221.902 106.429 224.169C102.182 226.431 100.056 229.64 100.056 233.79C100.056 238.228 101.993 241.5 105.86 243.624C109.727 245.748 114.784 246.81 121.013 246.81C126.3 246.81 131.351 246.012 136.166 244.404V244.393Z" fill="#C8B464"/>
<path d="M186.867 254.152L165.622 183.98H175.679L193.665 244.393H194.09L213.49 183.98H225.672L245.216 244.393H245.641L263.483 183.98H273.396L252.295 254.152H239.268L219.725 193.601H219.299L199.9 254.152H186.867Z" fill="#C8B464"/>
<path d="M284.372 249.835C279.039 246.017 276.373 240.662 276.373 233.779C276.373 229.347 277.717 225.478 280.407 222.177C283.096 218.877 286.779 216.328 291.451 214.537C296.123 212.746 301.387 211.85 307.242 211.85C312.247 211.85 317.201 212.487 322.114 213.762C327.021 215.036 331.038 216.661 334.153 218.641V208.314C334.153 202.465 332.118 198.079 328.061 195.157C323.999 192.235 318.476 190.771 311.489 190.771C304.501 190.771 299.237 192.023 295.129 194.52C291.02 197.023 288.969 200.157 288.969 203.928H278.913C278.913 199.778 280.234 196.053 282.878 192.752C285.521 189.451 289.296 186.833 294.209 184.899C299.117 182.964 304.926 182 311.627 182C321.447 182 329.257 184.262 335.066 188.791C340.87 193.32 343.778 199.876 343.778 208.458V238.595C343.778 243.124 345.76 245.386 349.725 245.386C351.708 245.386 353.173 245.059 354.115 244.393V252.739C352.035 253.681 349.725 254.152 347.174 254.152C340.749 254.152 336.738 251.465 335.135 246.086H334.566C331.452 248.916 327.274 251.201 322.033 252.946C316.793 254.691 311.247 255.564 305.392 255.564C296.703 255.564 289.693 253.652 284.36 249.835H284.372ZM322.539 244.393C327.355 242.791 331.222 240.575 334.153 237.745V226.712C331.32 224.921 327.636 223.48 323.108 222.395C318.574 221.311 313.948 220.771 309.23 220.771C302.524 220.771 297.054 221.902 292.802 224.169C288.555 226.431 286.429 229.64 286.429 233.79C286.429 238.228 288.365 241.5 292.233 243.624C296.1 245.748 301.157 246.81 307.386 246.81C312.673 246.81 317.724 246.012 322.539 244.404V244.393Z" fill="#C8B464"/>
<path d="M429.635 254.152H418.573L411.108 235.937C408.436 229.387 405.856 227.855 397.742 227.855H369.257V254.152H359.764V182.528H401.339C417.469 182.528 426.227 192.247 426.227 204.319C426.227 215.473 419.682 223.658 410.648 224.887V226.322C416.642 226.73 419.13 229.29 422.446 237.166L429.635 254.152ZM368.981 219.365H401.339C411.666 219.365 416.734 213.739 416.734 205.45C416.734 197.16 411.666 191.535 401.339 191.535H368.981V219.365Z" fill="#C8B464"/>
<path d="M438.392 254.152V182.528H469.273C493.977 182.528 508.084 198.182 508.084 218.337C508.084 238.492 493.983 254.146 469.273 254.146H438.392V254.152ZM447.885 245.151H469.273C487.891 245.151 498.585 233.279 498.585 218.343C498.585 203.406 487.891 191.535 469.273 191.535H447.885V245.151Z" fill="#C8B464"/>
<path d="M525.789 249.341C520.123 244.909 517.29 238.968 517.29 231.517H527.49C527.49 236.517 529.472 240.386 533.437 243.118C537.402 245.857 543.212 247.223 550.855 247.223C557.463 247.223 562.612 246.213 566.289 244.18C569.973 242.154 571.812 239.255 571.812 235.478C571.812 232.745 570.818 230.622 568.835 229.112C566.853 227.602 564.422 226.494 561.543 225.788C558.664 225.082 554.578 224.301 549.292 223.452C542.775 222.413 537.511 221.328 533.501 220.197C529.484 219.066 526.065 217.131 523.232 214.399C520.399 211.667 518.985 207.843 518.985 202.941C518.985 196.34 521.72 191.196 527.197 187.522C532.673 183.843 539.896 182.006 548.866 182.006C558.4 182.006 565.956 184.084 571.524 188.228C577.093 192.379 579.88 197.849 579.88 204.64H569.823C569.823 200.398 568.002 197.023 564.37 194.526C560.733 192.029 555.613 190.777 549.004 190.777C542.396 190.777 537.77 191.839 534.276 193.963C530.782 196.087 529.036 198.94 529.036 202.522C529.036 205.26 530.001 207.378 531.937 208.888C533.874 210.398 536.305 211.506 539.23 212.212C542.155 212.918 546.217 213.699 551.412 214.548C557.928 215.587 563.215 216.695 567.272 217.872C571.329 219.055 574.8 221.006 577.679 223.744C580.558 226.483 582 230.3 582 235.202C582 241.712 579.259 246.804 573.788 250.483C568.312 254.163 560.618 256 550.705 256C539.753 256 531.443 253.784 525.777 249.353L525.789 249.341Z" fill="#C8B464"/>
</svg>
