<svg width="83" height="18" viewBox="0 0 83 18" fill="none" xmlns="http://www.w3.org/2000/svg">
<path d="M29.7172 12.1045C29.2517 12.1045 29.0235 11.8453 29.0235 11.3085V7.58752C29.0235 6.51853 28.6539 5.69067 27.9283 5.12661C27.2073 4.56255 26.2216 4.28047 25.0031 4.28047C24.1726 4.28047 23.4424 4.40331 22.8309 4.63985C22.2194 4.88094 21.7403 5.21297 21.4117 5.62237C21.0786 6.03632 20.9143 6.50944 20.9143 7.02802V7.06889H22.2422V7.02802C22.2422 6.58223 22.4932 6.20013 22.9861 5.90445C23.4835 5.59968 24.1589 5.44956 24.9894 5.44956C25.82 5.44956 26.5228 5.62694 27.0156 5.98175C27.5039 6.33201 27.7503 6.86878 27.7503 7.57386V8.77028C27.3716 8.54283 26.8878 8.35178 26.3128 8.20167C25.7059 8.04246 25.0807 7.96512 24.4601 7.96512C23.7345 7.96512 23.0728 8.07883 22.4932 8.30173C21.9091 8.52463 21.4436 8.84753 21.1105 9.25693C20.7728 9.67088 20.604 10.1621 20.604 10.7171C20.604 11.5768 20.9417 12.2547 21.6125 12.7323C22.2788 13.2054 23.1595 13.4464 24.241 13.4464C24.9666 13.4464 25.6648 13.3373 26.3128 13.1189C26.9563 12.9051 27.4811 12.6232 27.869 12.2729H27.8918C28.1017 12.9325 28.6128 13.2691 29.4114 13.2691C29.7309 13.2691 30.0275 13.21 30.2876 13.0917L30.3104 13.0826V11.9408L30.242 11.9863C30.1325 12.0636 29.959 12.1 29.7217 12.1L29.7172 12.1045ZM27.7458 11.1857C27.3898 11.5223 26.9152 11.7907 26.3357 11.9863C25.747 12.1819 25.1218 12.282 24.4738 12.282C23.7117 12.282 23.0911 12.15 22.621 11.8953C22.151 11.6406 21.9228 11.2539 21.9228 10.7171C21.9228 10.2258 22.1784 9.83927 22.6895 9.56634C23.2051 9.2934 23.8851 9.15231 24.702 9.15231C25.2769 9.15231 25.8519 9.22052 26.4087 9.35244C26.9517 9.48436 27.3989 9.65727 27.7412 9.86652V11.1857H27.7458Z" fill="white"/>
<path d="M11.7783 4.92182C11.0937 4.56701 10.286 4.38508 9.36876 4.38508H5.45332V13.2327H9.36876C10.286 13.2327 11.0983 13.0507 11.7783 12.6959C12.4582 12.3411 12.9921 11.8226 13.3572 11.1584C13.7223 10.4943 13.9094 9.70273 13.9094 8.80659C13.9094 7.91046 13.7223 7.11899 13.3572 6.45485C12.9921 5.79071 12.4582 5.27663 11.7783 4.91727V4.92182ZM12.1798 10.5443C11.9197 11.0356 11.541 11.4177 11.0527 11.6861C10.5644 11.9545 9.98483 12.0909 9.32769 12.0909H6.72196V5.52231H9.32769C9.98483 5.52231 10.5644 5.65884 11.0527 5.92722C11.541 6.19561 11.9197 6.58215 12.1798 7.06889C12.44 7.56017 12.5723 8.14246 12.5723 8.80659C12.5723 9.47073 12.44 10.053 12.1798 10.5443Z" fill="white"/>
<path d="M38.1961 13.2327H39.4693V9.37976H44.9728V8.24254H39.4693V5.52231H45.2512V4.38053H38.1961V13.2327Z" fill="white"/>
<path d="M76.1731 8.71109C75.6711 8.56552 75.0094 8.4291 74.2062 8.30173C73.5674 8.1971 73.0608 8.10152 72.7049 8.01509C72.3489 7.92866 72.0523 7.79224 71.8196 7.61029C71.5914 7.43288 71.4773 7.17808 71.4773 6.85965C71.4773 6.43661 71.6872 6.0909 72.1071 5.84071C72.5315 5.58597 73.1338 5.45412 73.9051 5.45412C74.6763 5.45412 75.3425 5.60878 75.7806 5.90901C76.1868 6.19104 76.4058 6.56859 76.4332 7.03712V7.07799H77.7657V7.03257C77.7383 6.22287 77.387 5.56324 76.7161 5.06286C76.0225 4.54884 75.0687 4.28502 73.8868 4.28502C72.7733 4.28502 71.8652 4.51702 71.1807 4.97191C70.4962 5.43135 70.1448 6.08639 70.1448 6.90974C70.1448 7.52384 70.3273 8.01054 70.6833 8.35626C71.0346 8.69743 71.4682 8.94311 71.9701 9.08413C72.4676 9.22514 73.1247 9.36156 73.9279 9.48893C74.5759 9.59355 75.087 9.68914 75.4384 9.77557C75.7852 9.86199 76.0864 9.99841 76.3237 10.1804C76.5564 10.3578 76.6751 10.6126 76.6751 10.931C76.6751 11.3859 76.4606 11.7224 76.0134 11.9681C75.5661 12.2137 74.9318 12.3365 74.1241 12.3365C73.1932 12.3365 72.4721 12.1683 71.993 11.8362C71.5549 11.536 71.3176 11.1129 71.2811 10.5762V10.5352H69.9303V10.5807C69.9668 11.445 70.3227 12.15 70.9936 12.6732C71.7009 13.2236 72.7459 13.5011 74.1058 13.5011C75.3334 13.5011 76.3054 13.2691 76.9854 12.8142C77.6745 12.3548 78.0213 11.7088 78.0213 10.8946C78.0213 10.2805 77.8387 9.79377 77.4737 9.44806C77.1132 9.10689 76.6751 8.8612 76.1685 8.71109H76.1731Z" fill="white"/>
<path d="M60.1554 4.86274C59.4709 4.47608 58.6768 4.28047 57.7961 4.28047C56.9153 4.28047 56.0985 4.48064 55.3911 4.87185C54.6884 5.26305 54.1271 5.81795 53.73 6.51393C53.333 7.20991 53.1277 8.01507 53.1277 8.9021C53.1277 9.78914 53.3239 10.6079 53.7118 11.2994C54.0997 11.9908 54.6519 12.5367 55.3501 12.9234C56.0483 13.31 56.8651 13.5056 57.7824 13.5056C58.9324 13.5056 59.8861 13.2691 60.6163 12.8005C60.9449 12.5913 61.2278 12.332 61.4651 12.0318L61.4742 12.0227C61.4742 12.0227 61.4925 12.009 61.497 11.9954C61.5016 11.9863 61.5107 11.9772 61.5153 11.9681L61.529 11.95C61.57 11.8908 61.6111 11.8316 61.6522 11.7634L61.6613 11.7452C61.6613 11.7452 61.6704 11.7271 61.675 11.7225C61.7206 11.6497 61.7663 11.5724 61.8119 11.4814L61.821 11.4632C61.853 11.3995 61.8849 11.3359 61.9123 11.2722C61.9306 11.2358 61.9443 11.1993 61.9579 11.1629L61.9716 11.1311C61.9853 11.0993 61.999 11.072 62.0081 11.0402C62.0355 10.9628 62.0629 10.8901 62.0812 10.8173C62.0812 10.8082 62.0857 10.7991 62.0903 10.79C62.0903 10.7763 62.0994 10.7626 62.104 10.7535L62.1177 10.699C62.1314 10.6353 62.1405 10.5988 62.1405 10.5988L62.1496 10.5489H62.0994C62.0994 10.5489 60.9586 10.5443 60.7806 10.5443H60.7486L60.7395 10.5762C60.7213 10.6353 60.6984 10.7035 60.6711 10.7763C60.6209 10.89 60.5707 10.9901 60.5205 11.081L60.5113 11.0993C60.5113 11.0993 60.5022 11.1175 60.4976 11.1266C60.452 11.2039 60.3927 11.2813 60.3151 11.3768C60.2877 11.4132 60.2558 11.4496 60.2238 11.4814C59.6945 12.0546 58.8731 12.3456 57.7778 12.3456C56.8606 12.3456 56.0939 12.0681 55.5098 11.5268C54.9348 10.9946 54.5925 10.2759 54.4921 9.38887H62.3139V9.35244C62.3413 9.20233 62.355 9.01128 62.355 8.78838C62.355 7.93319 62.1587 7.15995 61.7709 6.47762C61.383 5.79983 60.8399 5.2585 60.1508 4.87185L60.1554 4.86274ZM54.515 8.26075C54.6473 7.4374 55.0078 6.75509 55.5874 6.24107C56.1761 5.7134 56.9199 5.44956 57.7915 5.44956C58.6631 5.44956 59.4252 5.71794 60.023 6.24107C60.6072 6.75509 60.9403 7.4374 61.0042 8.26075H54.5104H54.515Z" fill="white"/>
<path d="M73.9826 0.0181023C70.414 0.0181023 67.3246 2.09702 65.8643 5.09929C64.404 2.09247 61.3145 0.0181023 57.7459 0.0181023C54.1773 0.0181023 51.0924 2.08792 49.6321 5.09018C48.1718 2.07882 45.0778 0 41.5046 0C37.9314 0 34.8374 2.08337 33.3771 5.09474C31.9122 2.09247 28.8273 0.0226556 25.2633 0.0226556C21.6992 0.0226556 18.6097 2.09702 17.1449 5.09929C15.6891 2.08792 12.5906 0 9.01738 0C4.04322 0 0 4.03487 0 8.98862C0 13.9424 4.04778 17.9771 9.01738 17.9771C12.5814 17.9771 15.6709 15.9029 17.1358 12.9006C18.5915 15.912 21.6901 18 25.2633 18C28.8364 18 31.9305 15.9165 33.3908 12.9052C34.8556 15.9074 37.9405 17.9771 41.5046 17.9771C45.0686 17.9771 48.1581 15.9074 49.6184 12.9052C51.0787 15.9165 54.1727 17.9953 57.7459 17.9953C61.3191 17.9953 64.404 15.9165 65.8643 12.9143C67.3246 15.9211 70.414 17.9953 73.9826 17.9953C78.9568 17.9953 83 13.9605 83 9.00672C83 4.05297 78.9522 0.0181023 73.9826 0.0181023ZM73.9826 16.8081C70.4414 16.8081 67.4432 14.4472 66.4803 11.2221C66.4803 11.2084 66.4849 11.1947 66.4894 11.1765H65.2299C65.2299 11.1765 65.2345 11.2039 65.2391 11.2221C64.2807 14.4472 61.2826 16.8081 57.7368 16.8081C54.191 16.8081 51.1928 14.4427 50.2344 11.213C50.2344 11.2039 50.239 11.1902 50.2436 11.1765H48.9886C48.9886 11.1765 48.9886 11.1993 48.9978 11.2084C48.0349 14.429 45.0412 16.7808 41.5 16.7808C37.9588 16.7808 34.9606 14.4245 34.0023 11.2039C34.0023 11.1948 34.0023 11.1856 34.0068 11.1765H32.7519C32.7519 11.1765 32.7519 11.1948 32.7564 11.2039C31.8027 14.4336 28.7999 16.8035 25.2541 16.8035C21.7083 16.8035 18.701 14.4336 17.7473 11.1993C17.7473 11.1902 17.7473 11.1811 17.7518 11.1765H16.5014C16.5014 11.1765 16.5014 11.1902 16.506 11.1993C15.5477 14.4245 12.5495 16.7808 9.00825 16.7808C4.69579 16.7808 1.1865 13.2828 1.1865 8.98406C1.1865 4.68536 4.69579 1.1872 9.00825 1.1872C12.5495 1.1872 15.5477 3.54809 16.5106 6.77325H17.7609C18.7284 3.55719 21.7175 1.20541 25.2541 1.20541C28.7908 1.20541 31.7844 3.55719 32.7473 6.77325H33.9977C34.956 3.54809 37.9542 1.1872 41.5 1.1872C45.0458 1.1872 48.044 3.54809 49.0023 6.77325H50.2481C51.2156 3.55719 54.2092 1.20541 57.7413 1.20541C61.2734 1.20541 64.2716 3.55719 65.2345 6.77325H66.4894C67.4569 3.55719 70.446 1.20541 73.9826 1.20541C78.2951 1.20541 81.8044 4.70346 81.8044 9.00217C81.8044 13.3009 78.2951 16.799 73.9826 16.799V16.8081Z" fill="white"/>
</svg>
